<svg xmlns="http://www.w3.org/2000/svg" viewBox="0 0 100 100" width="100" height="100">
  <rect x="0.9" y="0.9" width="98.2" height="98.2" fill="none" stroke="#000000" stroke-width="1.7"/>
  <path d="M30.885 59.597L28.957 66L19.156 66L30.199 32.545L42.614 32.545L53.656 66L43.855 66L41.928 59.597L30.885 59.597M32.943 52.801L39.869 52.801L36.537 41.759L36.276 41.759 M62.940 66L53.858 66L53.858 32.545L68.298 32.545Q72.023 32.545 74.816 34.016Q77.609 35.486 79.161 38.148Q80.713 40.811 80.713 44.372Q80.713 47.966 79.120 50.596Q77.528 53.226 74.661 54.647Q71.794 56.068 67.972 56.068L62.940 56.068L62.940 66M62.940 39.798L62.940 49.011L66.142 49.011Q67.743 49.011 68.878 48.448Q70.013 47.884 70.626 46.839Q71.239 45.793 71.239 44.372Q71.239 42.935 70.626 41.914Q70.013 40.893 68.878 40.346Q67.743 39.798 66.142 39.798" fill="#000000"/>
</svg>
