<svg xmlns="http://www.w3.org/2000/svg" viewBox="0 0 470 100" width="470" height="100">
  <rect x="0" y="0" width="100" height="100" fill="#000000"/>
  <path d="M30.885 59.597L28.957 66L19.156 66L30.199 32.545L42.614 32.545L53.656 66L43.855 66L41.928 59.597L30.885 59.597M32.943 52.801L39.869 52.801L36.537 41.759L36.276 41.759 M62.940 66L53.858 66L53.858 32.545L68.298 32.545Q72.023 32.545 74.816 34.016Q77.609 35.486 79.161 38.148Q80.713 40.811 80.713 44.372Q80.713 47.966 79.120 50.596Q77.528 53.226 74.661 54.647Q71.794 56.068 67.972 56.068L62.940 56.068L62.940 66M62.940 39.798L62.940 49.011L66.142 49.011Q67.743 49.011 68.878 48.448Q70.013 47.884 70.626 46.839Q71.239 45.793 71.239 44.372Q71.239 42.935 70.626 41.914Q70.013 40.893 68.878 40.346Q67.743 39.798 66.142 39.798" fill="#ffffff"/>
  <path d="M129.663 58.153L127.903 64L118.955 64L129.037 33.455L140.372 33.455L150.455 64L141.506 64L139.746 58.153L129.663 58.153M131.543 51.949L137.866 51.949L134.824 41.866L134.585 41.866 M171.514 33.455L179.807 33.455L179.807 64L172.886 64L161.849 47.952L161.670 47.952L161.670 64L153.378 64L153.378 33.455L160.418 33.455L171.276 49.443L171.514 49.443 M195.497 64L183.744 64L183.744 33.455L195.378 33.455Q200.091 33.455 203.529 35.282Q206.967 37.109 208.838 40.532Q210.710 43.955 210.710 48.727Q210.710 53.500 208.846 56.923Q206.982 60.346 203.566 62.173Q200.151 64 195.497 64M192.037 40.494L192.037 56.960L195.199 56.960Q197.466 56.960 199.069 56.229Q200.673 55.499 201.515 53.709Q202.358 51.919 202.358 48.727Q202.358 45.536 201.500 43.746Q200.643 41.956 198.995 41.225Q197.347 40.494 194.960 40.494 M222.821 64L214.528 64L214.528 33.455L227.713 33.455Q231.114 33.455 233.664 34.692Q236.214 35.930 237.631 38.257Q239.048 40.584 239.048 43.835Q239.048 47.116 237.602 49.369Q236.229 51.472 233.858 52.620L240.063 64L231.054 64L225.685 53.918L222.821 53.918L222.821 64M222.821 40.077L222.821 47.474L225.744 47.474Q227.206 47.474 228.243 47.109Q229.279 46.744 229.838 45.938Q230.398 45.133 230.398 43.835Q230.398 42.523 229.838 41.695Q229.279 40.867 228.243 40.472Q227.206 40.077 225.744 40.077 M272.159 48.727Q272.159 53.828 270.175 57.326Q268.192 60.823 264.821 62.620Q261.450 64.418 257.304 64.418Q253.128 64.418 249.765 62.605Q246.401 60.793 244.425 57.296Q242.449 53.798 242.449 48.727Q242.449 43.626 244.425 40.129Q246.401 36.631 249.765 34.834Q253.128 33.037 257.304 33.037Q261.450 33.037 264.821 34.834Q268.192 36.631 270.175 40.129Q272.159 43.626 272.159 48.727M263.628 48.727Q263.628 45.983 262.904 44.096Q262.181 42.210 260.772 41.233Q259.362 40.256 257.304 40.256Q255.246 40.256 253.836 41.233Q252.427 42.210 251.703 44.096Q250.980 45.983 250.980 48.727Q250.980 51.472 251.703 53.358Q252.427 55.245 253.836 56.222Q255.246 57.199 257.304 57.199Q259.362 57.199 260.772 56.222Q262.181 55.245 262.904 53.358Q263.628 51.472 263.628 48.727 M284.270 64L275.977 64L275.977 33.455L289.162 33.455Q292.563 33.455 295.113 34.797Q297.663 36.139 299.080 38.570Q300.497 41.001 300.497 44.253Q300.497 47.534 299.043 49.935Q297.589 52.337 294.971 53.634Q292.354 54.932 288.864 54.932L284.270 54.932L284.270 64M284.270 40.077L284.270 48.489L287.193 48.489Q288.655 48.489 289.691 47.974Q290.728 47.460 291.287 46.505Q291.847 45.550 291.847 44.253Q291.847 42.940 291.287 42.008Q290.728 41.076 289.691 40.576Q288.655 40.077 287.193 40.077 M311.832 64L303.540 64L303.540 33.455L316.724 33.455Q320.125 33.455 322.675 34.692Q325.226 35.930 326.643 38.257Q328.060 40.584 328.060 43.835Q328.060 47.116 326.613 49.369Q325.241 51.472 322.869 52.620L329.074 64L320.065 64L314.696 53.918L311.832 53.918L311.832 64M311.832 40.077L311.832 47.474L314.756 47.474Q316.217 47.474 317.254 47.109Q318.290 46.744 318.850 45.938Q319.409 45.133 319.409 43.835Q319.409 42.523 318.850 41.695Q318.290 40.867 317.254 40.472Q316.217 40.077 314.756 40.077 M331.580 33.455L339.872 33.455L339.872 64L331.580 64 M343.810 64L343.810 33.455L354.131 33.455L361.230 50.756L361.588 50.756L368.688 33.455L379.009 33.455L379.009 64L370.895 64L370.895 46.341L370.656 46.341L363.855 63.761L358.963 63.761L352.162 46.222L351.923 46.222L351.923 64 M404.901 64L382.946 64L382.946 33.455L404.960 33.455L404.960 40.136L391.239 40.136L391.239 45.386L403.827 45.386L403.827 52.068L391.239 52.068L391.239 57.318L404.901 57.318" fill="#000000"/>
</svg>
